<?xml version="1.0" encoding="utf-8"?>
<!-- Generator: Adobe Illustrator 27.0.0, SVG Export Plug-In . SVG Version: 6.00 Build 0)  -->
<svg version="1.1" id="Capa_1" xmlns="http://www.w3.org/2000/svg" xmlns:xlink="http://www.w3.org/1999/xlink" x="0px" y="0px"
	 viewBox="0 0 24 24" style="enable-background:new 0 0 24 24;" xml:space="preserve">
<g>
	<path d="M23.1,3.4H4.5c-0.5,0-0.9,0.4-0.9,0.9v1.9H1.2C0.6,6.3,0,6.8,0,7.5v11.8c0,0.7,0.6,1.2,1.2,1.2h18.6c0.7,0,1.2-0.6,1.2-1.2
		v-2.2h2c0.5,0,0.9-0.4,0.9-0.9V4.4C24,3.9,23.6,3.4,23.1,3.4z M4.6,18.9H1.7v-1.5h2.9L4.6,18.9L4.6,18.9z M8.3,18.9H5.4v-1.5h2.9
		V18.9z M12,18.9H9.1v-1.5H12V18.9z M13.8,12.4c0,0.8,0.3,1.6,0.9,2.1c-0.3,0.2-0.7,0.3-1.2,0.3c-1.3,0-2.4-1.1-2.4-2.4
		c0-1.3,1.1-2.4,2.4-2.4c0.4,0,0.8,0.1,1.2,0.3C14.2,10.8,13.8,11.6,13.8,12.4z M16.8,10c1.3,0,2.4,1.1,2.4,2.4
		c0,1.3-1.1,2.4-2.4,2.4c-1.3,0-2.4-1.1-2.4-2.4C14.4,11.1,15.5,10,16.8,10z M15.7,18.9h-2.9v-1.5h2.9V18.9z M19.4,18.9h-2.9v-1.5
		h2.9V18.9z M22.2,15.3h-1.1v-4.4h1.1V15.3z M22.2,7.1H21c-0.2-0.5-0.6-0.8-1.2-0.8H5.4v-1h16.8L22.2,7.1L22.2,7.1z"/>
</g>
</svg>
