<?xml version="1.0" encoding="utf-8"?>
<!-- Generator: Adobe Illustrator 27.0.0, SVG Export Plug-In . SVG Version: 6.00 Build 0)  -->
<svg version="1.1" id="Слой_1" xmlns="http://www.w3.org/2000/svg" xmlns:xlink="http://www.w3.org/1999/xlink" x="0px" y="0px"
	 viewBox="0 0 24 24" style="enable-background:new 0 0 24 24;" xml:space="preserve">
<path d="M21,3H3C1.4,3,0,4.3,0,6v12c0,1.5,1.2,2.8,2.7,3c0.1,0,0.2,0,0.3,0h18c0.1,0,0.2,0,0.3,0c0,0,0.1,0,0.1,0
	c1.5-0.2,2.6-1.4,2.6-3V6C24,4.3,22.6,3,21,3z M22,16.5l-2.2-4.4c-0.2-0.5-0.7-0.9-1.2-1C18.4,11,18.2,11,18,11
	c-0.4,0-0.7,0.1-1,0.3L10.6,15l-2.5-1.7C7.8,13.1,7.4,13,7,13c-0.5,0-1,0.2-1.4,0.6L2,17.2V6c0-0.6,0.5-1,1-1h18c0.5,0,1,0.4,1,1
	V16.5z"/>
<circle cx="11" cy="10" r="2"/>
</svg>
