<?xml version="1.0" encoding="utf-8"?>
<!-- Generator: Adobe Illustrator 27.0.0, SVG Export Plug-In . SVG Version: 6.00 Build 0)  -->
<svg version="1.1" id="Слой_1" xmlns="http://www.w3.org/2000/svg" xmlns:xlink="http://www.w3.org/1999/xlink" x="0px" y="0px"
	 viewBox="0 0 24 24" style="enable-background:new 0 0 24 24;" xml:space="preserve">
<g>
	<g transform="translate(0.000000,511.000000) scale(0.100000,-0.100000)">
		<path d="M111.8,5081.9c-9.7-1-19.4-3.5-26-6.7c-6.1-3-10.7-7.2-10.7-9.9c0-4.9,7-10.4,17.4-13.6c25.7-8.2,63.7-4.1,75.3,8
			c4.6,4.7,3.1,9.2-4.4,13.7C152.5,5080.1,130,5083.8,111.8,5081.9z"/>
		<path d="M75.1,5041.3v-9l3.3-3.1c3.9-3.7,11.8-7.3,21.6-9.6c5.9-1.3,9.2-1.6,23-1.6c14.2-0.1,16.9,0.1,22.8,1.6
			c8.6,2.2,14,4.3,18.9,7.4c5.3,3.5,6.2,5.8,6.2,15.5c0,4.3-0.1,7.9-0.4,7.9s-1.9-1-3.9-2.2c-9.3-5.7-26-9.2-43.6-9.2
			c-17.4,0-30.7,2.6-41.7,8.1l-6.2,3.1L75.1,5041.3L75.1,5041.3z"/>
		<path d="M30.5,5042c-17.2-2.8-30.2-9.8-30.2-16.2c0-6.7,13.8-13.8,31.8-16.5c6.6-1,25.6-1,31.4-0.1l3.7,0.6l0.2,15.8
			c0.1,14.6,0.1,15.9-1.1,16.4C63.8,5043,36.9,5043,30.5,5042z"/>
		<path d="M75.1,5011.6c0-8.8,0-9,2.2-11.4c6.2-7.1,24.7-12.5,42.8-12.5h8.1l1.9,4c3,5.8,6.1,10.2,10.7,15c3.7,3.8,4,4.3,2.2,3.9
			c-5.8-1.3-20.6-1.9-29.3-1.3c-14.9,1.3-25.1,3.9-34,8.8l-4.7,2.5V5011.6z"/>
		<path d="M176.5,5017.9c-29.1-6.1-48.3-31.8-44.5-59.9c1.6-12.9,6.7-22.9,16-32.1c10.5-10.4,22.6-15.3,37.5-15.3
			c21.4,0,39.4,11.1,48.6,30.3c7.5,15.4,7.5,31.7-0.1,47.4c-2.8,6-4.4,8.1-10.2,13.9c-11.2,11.2-23,16.2-38.2,16
			C181.4,5018.2,177.3,5018,176.5,5017.9z M196.7,4994.8c4.6-1.3,8.8-4.7,11-8.8c2.3-4.5,2.3-13,0-17.9
			c-3.7-7.5-10.2-11.1-21.5-11.7c-7.3-0.4-7.5-0.4-7.5-2.3c0-1.9,0.1-1.9,7.3-2.1l7.3-0.2v-2.5v-2.5l-7.3-0.2l-7.3-0.2l-0.2-6.4
			c-0.1-3.9-0.6-6.5-1.1-6.9c-1.4-0.9-8.4-0.7-9.4,0.3c-0.5,0.5-0.9,3.3-0.9,7.1v6.2h-2.6c-2.5,0-2.6,0.1-2.6,2.6
			c0,2.5,0.1,2.6,2.6,2.6h2.6v20.6v20.6l1.7,1.1c2.1,1.3,13.3,2.5,19.6,2.1C190.9,4995.9,194.7,4995.3,196.7,4994.8z"/>
		<path d="M181,4987.1l-2.2-0.5l-0.2-10.7l-0.2-10.6h5.3c9.5,0,13.6,3.1,14.1,10.7c0.2,3.9,0.1,4.9-1.3,6.7
			c-0.9,1.1-2.5,2.5-3.7,3.1C190.1,4987.1,184.1,4987.7,181,4987.1z"/>
		<path d="M0.3,5002.6v-9l2.7-3c7.7-8.5,32.4-14,54.2-12c5.1,0.4,9.6,1,9.9,1.2c0.3,0.2,0.6,5.1,0.6,10.8v10.5l-5-0.6
			c-8.8-1-27.7-0.6-35,0.8c-10.8,2-18.7,4.7-24.3,8.3l-3,1.9V5002.6z"/>
		<path d="M75.1,4981.7c0-8.8,0-9,2.2-11.4c5.9-6.7,24.4-12.5,40.3-12.5h6.4v6.6c0,3.6,0.2,8.2,0.6,10.3l0.5,3.8l-7.6,0.5
			c-16.6,1.1-27.8,3.7-37,8.7l-5.5,2.9V4981.7z"/>
		<path d="M0.3,4972.5v-9.1l3.7-3.5c4.3-4.2,11.7-7.3,23.3-9.7c6.3-1.3,10.2-1.6,20.5-1.6c7,0.1,14.2,0.4,16.1,0.7l3.4,0.7l0.2,10.6
			l0.2,10.7l-5.1-0.6c-8.6-1-27.7-0.6-35.2,0.8c-9,1.6-17.9,4.6-23,7.6l-4,2.5V4972.5z"/>
		<path d="M75.1,4951.6c0-8.7,0-8.8,2.2-11.3c6.7-7.6,24.8-12.6,45.9-12.6c6.1,0,11.2,0.2,11.4,0.4c0.2,0.2-1.1,3.1-2.9,6.6
			c-1.9,3.4-3.9,8-4.6,10l-1.2,3.8l-11.4,0.9c-13.9,1-24,3.4-32.8,7.9l-6.6,3.2L75.1,4951.6L75.1,4951.6z"/>
		<path d="M0.3,4943.1c0-10.1,0.5-11.4,5.9-15.1c10.4-7.1,32.3-11.1,50.9-9.3c5.1,0.5,9.4,1.1,9.8,1.3c0.4,0.2,0.7,5.1,0.7,10.8
			v10.5l-3.9-0.6c-2.2-0.3-10-0.6-17.4-0.5c-10.8,0.1-15,0.4-21.2,1.7c-8.8,1.9-17.8,5.1-21.9,7.9l-2.8,1.9V4943.1z"/>
		<path d="M75.1,4921.8v-8.9l2.6-2.8c10.1-11.3,45-15.9,70.5-9.5c6.5,1.6,15.2,5,15.2,5.9c0,0.1-1.8,1.2-4,2.2
			c-4,1.8-10.4,6-15.1,9.9l-2.3,1.9l-8.2-0.8c-19.1-1.9-40.8,1.5-53.9,8.6l-4.7,2.5L75.1,4921.8L75.1,4921.8z"/>
	</g>
</g>
</svg>
