<?xml version="1.0" encoding="utf-8"?>
<!-- Generator: Adobe Illustrator 27.0.0, SVG Export Plug-In . SVG Version: 6.00 Build 0)  -->
<svg version="1.1" id="Слой_1" xmlns="http://www.w3.org/2000/svg" xmlns:xlink="http://www.w3.org/1999/xlink" x="0px" y="0px"
	 viewBox="0 0 24 24" style="enable-background:new 0 0 24 24;" xml:space="preserve">
<style type="text/css">
	.st0{fill-rule:evenodd;clip-rule:evenodd;}
</style>
<path class="st0" d="M12,0.1c-3,0-5.5,2.5-5.5,5.5S9,11.1,12,11.1c3,0,5.5-2.5,5.5-5.5S15,0.1,12,0.1z M8.2,5.6
	c0-2.1,1.7-3.8,3.8-3.8s3.8,1.7,3.8,3.8S14.1,9.4,12,9.4S8.2,7.7,8.2,5.6z"/>
<path class="st0" d="M12,12.9c-2.4,0-4.5,0.5-6.2,1.5c-1.6,0.9-2.8,2.3-2.8,4c0,1.7,1.2,3.1,2.8,4c1.6,0.9,3.8,1.5,6.2,1.5
	c2.4,0,4.5-0.5,6.2-1.5c1.6-0.9,2.8-2.3,2.8-4c0-1.7-1.2-3.1-2.8-4C16.5,13.4,14.4,12.9,12,12.9z M4.8,18.4c0-0.8,0.6-1.8,1.9-2.5
	c1.3-0.8,3.2-1.2,5.3-1.2s4,0.5,5.3,1.2c1.3,0.8,1.9,1.7,1.9,2.5c0,0.8-0.6,1.8-1.9,2.5c-1.3,0.8-3.2,1.2-5.3,1.2s-4-0.5-5.3-1.2
	C5.4,20.1,4.8,19.2,4.8,18.4z"/>
</svg>
