<?xml version="1.0" encoding="utf-8"?>
<!-- Generator: Adobe Illustrator 27.0.0, SVG Export Plug-In . SVG Version: 6.00 Build 0)  -->
<svg version="1.1" id="Слой_1" xmlns="http://www.w3.org/2000/svg" xmlns:xlink="http://www.w3.org/1999/xlink" x="0px" y="0px"
	 viewBox="0 0 260 260" style="enable-background:new 0 0 260 260;" xml:space="preserve">
<style type="text/css">
	.st0{fill:#FF9900;}
</style>
<g>
	<g>
		<g>
			<path class="st0" d="M259.6,195.5c0,0.7,0,1.8,0,2.5c0,1.4-0.4,2.9-0.7,4.3c0,0.4,0,0.4-0.4,0.7c0,0.4,0,0.4,0,0.7
				c-5.8,18.8-30,34.4-39.4,39.4c-2.2,1.1-4.7,1.1-6.9,0c-3.3-1.8-8.7-5.1-14.5-9.4c-6.1-4.7-12.7-10.1-17.7-16.6
				c-3.3-4-5.8-8.7-7.2-13.4c0-0.4,0-0.4-0.4-0.7c0-0.4,0-0.7-0.4-0.7c-0.4-1.1-0.7-2.5-0.7-3.6s-0.4-2.2-0.4-2.9
				c0-14.5,11.6-26,26-26c3.3,0,6.1,0.7,9,1.8c2.5,1.1,5.1,2.5,7.2,4c1.1,0.7,2.5,0.7,3.6,0c2.2-1.4,4.3-2.9,6.9-4
				c2.9-1.1,6.1-1.8,9.4-1.8C248,169.4,259.6,181,259.6,195.5z"/>
			<path class="st0" d="M254.1,123.1l-104.9-106c-9.8-9.8-25.3-10.1-35.8-1.8c-0.7,0.7-1.4,1.1-2.2,1.8L5.7,123.1
				c-5.1,5.1-5.1,13.7,0,18.8c0.7,0.7,1.4,1.1,2.2,1.8c2.2,1.4,4.7,2.2,7.2,2.2s4-0.7,6.5-2.2c0.7-0.4,1.4-1.1,1.8-1.4l5.1-4.7
				c0.7-0.7,2.2,0,2.2,1.1v56.1c0,26.8,26,49.2,54.3,49.2h94l0,0c5.4,0,7.6-6.5,3.6-10.1c-3.3-2.9-6.5-5.8-9-9
				c-2.5-2.9-6.1-4.3-9.8-4.3H84.9c-13.4,0-31.1-13.7-31.1-26v-80.3c0-0.4,0-0.7,0.4-0.7l74.5-76c0.4-0.4,1.4-0.4,1.8,0l73.1,78.1
				c0.4,0.4,0.4,0.7,0.4,0.7v39.4c0,3.3,1.8,5.8,4.3,7.6l0.4,0.4c4,2.2,9,2.2,13,0l0,0c2.9-1.4,4.7-4.3,4.7-7.6v-17.7
				c0-1.1,1.4-1.8,2.2-1.1l5.4,4.7c2.5,2.5,6.5,4,10.1,4s7.2-1.4,9.8-4C259.2,136.9,259.6,128.2,254.1,123.1z"/>
			<g>
				<g transform="translate(0.000000,511.000000) scale(0.100000,-0.100000)">
					<path class="st0" d="M1213.6,4229.5c-10.1-3.3-21-13-26-23.1c-4.3-8.7-4.7-13.7-4.7-46.3c0-36.5,0-37.3,6.9-51.7
						c18.1-38.3,24.6-68.7,24.6-118.6c0-36.9,1.8-47,9.8-53.5c2.5-2.2,13-3.3,34.7-3.6c48.1-1.1,83.9-11.9,123-38.3
						c44.5-30,79.6-78.8,93.7-131.3c5.4-20.6,9-52.4,7.6-70.2c-1.1-15.9-1.1-16.3,5.8-23.1c11.9-11.6,20.6-13.7,51.7-13.7
						c43,0,75.2-7.6,113.6-27.1c16.3-8.3,17.7-8.7,48.5-10.1c35.1-1.4,46.3,0.4,58.6,9.8c14.1,10.9,15.9,17.4,16.6,68.7
						c0.7,52.8-0.7,58.6-18.1,70.9l-9.8,6.9l-40.1,1.1l-40.5,1.1l-5.4,22.4c-9,40.5-27.1,86.1-48.5,120.8l-10.1,16.6l28.9,28.6
						c25.7,25.7,28.9,29.7,31.1,39.4c5.4,22.1,0.7,30.7-35.4,67.6c-35.8,36.9-45.2,41.6-68.4,34.7c-6.9-2.2-15.9-9-36.2-29.3
						c-14.8-14.5-27.8-26.8-28.9-26.8s-8,4-15.9,8.7c-34.7,22.4-80.3,41.6-122.2,52.8l-19.2,5.1l1.1,35.1
						c1.1,39.8-1.1,50.3-11.9,62.6c-11.9,13.7-17.7,14.8-65.5,15.6C1239.2,4231.3,1217.2,4230.2,1213.6,4229.5z"/>
					<path class="st0" d="M947.7,4182.8c-9.8-3.6-13.7-6.9-16.6-13.7c-6.9-13.7-3.6-18.8,32.9-56.1c37.3-38,42.3-45.9,42.3-67.6
						c0-20.3-5.8-30-31.8-56.8c-27.1-27.9-38.7-34.7-59-34.7c-21.3,0.4-30,5.4-64,39.4c-18.4,18.4-32.9,30.7-36.5,31.5
						c-9.8,2.5-20.3-1.4-25.7-10.1c-5.1-7.2-5.4-9.8-4.3-27.5c3.3-49.9,23.1-92.6,59.3-126.2c36.5-34,69.4-46.3,131.3-49.6
						c65.1-3.3,48.8,9,215.9-159.1c77-77,143.2-145.8,147.9-152.6c14.1-21.3,17-34.7,16.6-76c-0.7-64.7,13-103.8,50.3-142.9
						c37.3-39.4,79.2-57.5,133.1-57.9c27.1-0.4,27.1-0.4,34,6.1c8,7.6,10.1,15.9,6.9,25.3c-1.1,3.6-17,21.3-34.7,39.4
						c-21.7,22.1-33.6,36.2-36.9,43c-6.5,14.5-6.1,34,0.7,48.5c6.9,14.5,47.7,55.7,61.8,61.8c12.3,5.4,34.7,6.1,46.3,1.1
						c4.7-2.2,21.3-16.3,38.7-33.6c16.6-16.6,32.6-31.5,35.4-32.9c10.9-5.4,25-0.4,31.1,11.6c2.9,5.8,3.3,11.2,2.5,26
						c-5.1,68.4-42.7,125.1-103.8,156.2c-24.6,12.7-42.7,16.3-86.1,18.1c-45.2,2.2-55.7,5.1-77.8,21.3
						c-7.2,5.4-74.5,72.3-150.1,148.7c-130.9,132.7-137.1,139.6-143.9,154.8c-9,20.3-11.6,37.3-10.1,67.3
						c3.3,62.9-18.8,114.7-65.8,155.2c-15.9,13.7-45.9,29.7-68,36.2C1002.7,4182.1,955,4185.7,947.7,4182.8z"/>
					<path class="st0" d="M763.6,3786c-11.2-3.3-21.7-11.9-26.8-22.4c-4.3-8-4.7-13.7-5.4-56.1l-0.4-47.4l6.9-9.8
						c3.6-5.4,11.2-11.9,16.6-14.8c9.4-4.7,12.7-5.4,47.7-5.4H840l2.5-13c8.7-44.8,30.7-100.2,54.6-139.6l5.4-9l-27.5-28.2
						c-24.2-24.6-27.8-29.7-30.4-39.4c-5.4-22.4,0.7-33.3,39.4-71.6c22.4-22.4,30.7-28.9,37.6-31.1c22.4-6.1,30.7-2.2,62.9,29.7
						l27.1,26.8l15.6-10.5c33.3-22.4,86.4-45.6,125.1-54.6l17.4-4v-37.3c0-42.3,2.2-50.3,16.3-62.9c10.5-9.4,16.3-10.1,66.2-10.5
						l41.6-0.4l11.2,6.9c18.1,11.2,20.3,18.1,20.6,62.9c0.7,37.3,0.7,38.7-4.7,48.5c-8.3,15.2-18.8,47-22.4,68
						c-2.2,11.9-3.6,31.5-3.6,54.6c0,36.9-1.8,47-9.8,53.5c-2.5,2.2-13,3.3-34.7,3.6c-24.2,0.4-35.4,1.8-52.4,6.1
						c-82.1,21.7-145.4,86.4-166.4,170c-2.9,12.7-4.7,27.5-5.4,49.2c-0.7,28.9-1.1,31.5-5.8,37.3c-10.9,11.6-16.3,13-56.8,14.5
						c-45.6,2.2-68.4,7.6-103.1,24.6l-22.4,11.2l-33.6,1.1C783.9,3787.9,768.7,3787.5,763.6,3786z"/>
				</g>
			</g>
		</g>
	</g>
</g>
</svg>
