<?xml version="1.0" standalone="no"?>
<!DOCTYPE svg PUBLIC "-//W3C//DTD SVG 20010904//EN"
 "http://www.w3.org/TR/2001/REC-SVG-20010904/DTD/svg10.dtd">
<svg version="1.0" xmlns="http://www.w3.org/2000/svg"
 width="700.000000pt" height="700.000000pt" viewBox="0 0 700.000000 700.000000"
 preserveAspectRatio="xMidYMid meet">
<metadata>
Created by potrace 1.14, written by Peter Selinger 2001-2017
</metadata>
<g transform="translate(0.000000,700.000000) scale(0.100000,-0.100000)"
fill="#000000" stroke="none">
<path d="M3380 6734 c-93 -18 -174 -48 -255 -95 -60 -35 -204 -175 -1003 -977
-514 -516 -1176 -1180 -1472 -1477 -618 -619 -595 -590 -595 -750 0 -78 4 -99
29 -153 35 -75 105 -143 186 -180 42 -20 72 -26 130 -26 98 -1 156 28 281 141
91 81 119 96 136 71 4 -7 8 -371 9 -808 0 -437 4 -822 8 -855 46 -379 302
-752 663 -969 153 -91 398 -184 533 -201 30 -4 77 -11 105 -15 27 -5 655 -8
1395 -7 l1345 2 31 22 c59 42 81 131 49 193 -8 16 -41 53 -72 82 -59 54 -130
125 -218 218 -28 31 -73 64 -105 79 l-55 26 -430 3 c-236 1 -763 3 -1170 5
l-740 2 -79 28 c-312 109 -573 352 -626 580 -6 26 -9 468 -9 1152 l0 1110 277
281 c152 155 378 385 501 510 337 344 1011 1032 1138 1161 118 121 126 124
168 78 11 -12 74 -80 140 -150 162 -173 182 -194 315 -337 63 -67 153 -163
200 -213 47 -49 90 -95 95 -101 6 -6 60 -65 121 -130 62 -65 126 -135 144
-154 18 -19 83 -88 144 -154 61 -65 127 -135 146 -156 19 -21 85 -91 146 -156
62 -66 126 -135 144 -154 18 -19 90 -96 160 -170 69 -74 143 -154 163 -176
l37 -42 3 -563 c2 -557 2 -565 24 -604 93 -174 350 -212 507 -75 64 57 69 83
71 381 1 270 5 299 39 299 6 0 54 -37 106 -83 52 -45 108 -90 123 -100 51 -33
138 -57 206 -58 259 -2 441 249 355 492 -25 70 43 0 -1294 1350 -1416 1430
-1692 1703 -1752 1738 -56 32 -172 76 -232 87 -63 11 -203 11 -266 -2z"/>
<path d="M3298 4630 c-55 -7 -94 -38 -106 -84 -5 -17 -7 -71 -6 -121 2 -72 7
-101 27 -146 35 -77 54 -177 56 -293 3 -146 7 -152 106 -155 128 -5 214 -27
305 -81 194 -114 310 -314 312 -537 1 -69 3 -75 30 -98 16 -14 42 -25 56 -26
193 -6 266 -20 376 -76 41 -21 65 -25 145 -26 84 -2 101 1 132 21 47 28 56 63
54 207 -1 126 -5 142 -43 170 -22 16 -48 21 -136 25 l-109 5 -14 50 c-38 139
-101 290 -147 357 -12 17 -7 26 64 98 63 65 80 88 85 120 8 50 -2 68 -99 168
-124 128 -157 130 -276 16 l-78 -75 -39 22 c-121 69 -237 118 -348 148 l-40
10 2 111 2 110 -38 40 c-33 34 -44 40 -82 41 -24 0 -66 1 -94 2 -27 1 -71 0
-97 -3z"/>
<path d="M2543 4499 c-28 -10 -46 -45 -39 -72 3 -12 45 -62 92 -112 150 -157
152 -206 15 -344 -65 -66 -93 -81 -146 -81 -61 0 -73 7 -192 123 -74 72 -110
81 -144 39 -17 -22 -19 -36 -15 -83 12 -125 60 -228 146 -316 103 -103 188
-138 366 -148 102 -6 130 -12 177 -41 23 -14 211 -196 419 -405 442 -445 424
-419 431 -609 6 -154 9 -168 52 -256 75 -155 229 -259 399 -271 105 -7 130 -1
146 36 15 37 13 39 -85 146 -93 101 -115 136 -115 185 0 47 24 88 90 156 74
76 99 88 180 85 37 -1 43 -6 173 -129 59 -56 71 -63 95 -57 45 11 61 41 56
105 -16 185 -118 336 -279 415 -79 39 -98 44 -210 50 -113 7 -144 13 -192 36
-27 13 -167 147 -423 406 -449 453 -431 427 -435 617 -2 88 -9 139 -24 186
-62 197 -234 329 -446 343 -38 3 -80 1 -92 -4z"/>
<path d="M2012 3405 l-37 -33 -3 -140 c-3 -137 -3 -139 23 -170 30 -36 62 -45
172 -46 76 -1 97 -7 98 -24 4 -55 89 -287 130 -352 12 -19 25 -40 28 -47 5 -7
-16 -35 -49 -70 -139 -144 -139 -168 -2 -308 128 -131 161 -130 296 5 27 27
52 50 56 50 3 0 31 -17 63 -37 58 -37 202 -103 258 -118 17 -5 32 -9 35 -10 3
-1 20 -6 38 -10 l32 -7 0 -98 c0 -176 18 -193 202 -198 117 -4 130 -2 162 18
44 27 56 65 56 181 0 70 -5 97 -24 141 -43 98 -53 147 -60 313 -7 146 -4 143
-120 146 -326 11 -582 260 -601 586 -8 140 -16 148 -136 158 -170 13 -254 32
-329 77 -29 17 -55 22 -143 24 l-109 3 -36 -34z"/>
<path d="M5208 2425 c-2 -2 -19 -7 -38 -10 -249 -42 -467 -240 -542 -490 -34
-114 -29 -304 10 -381 10 -21 25 -57 32 -79 26 -81 124 -255 172 -307 7 -7 34
-38 59 -68 155 -184 476 -440 754 -602 77 -44 111 -55 160 -53 51 3 87 18 202
88 277 166 559 401 712 592 31 39 58 72 61 75 11 10 88 136 114 187 119 236
112 503 -19 730 -48 83 -169 193 -265 241 -118 59 -192 76 -330 76 -167 1
-260 -27 -416 -125 -68 -43 -108 -49 -145 -21 -48 37 -157 92 -235 118 -60 20
-103 27 -180 30 -56 1 -104 1 -106 -1z"/>
</g>
</svg>
