<?xml version="1.0" encoding="utf-8"?>
<!-- Generator: Adobe Illustrator 27.0.0, SVG Export Plug-In . SVG Version: 6.00 Build 0)  -->
<svg version="1.1" id="Слой_1" xmlns="http://www.w3.org/2000/svg" xmlns:xlink="http://www.w3.org/1999/xlink" x="0px" y="0px"
	 viewBox="0 0 211.9 67.6" style="enable-background:new 0 0 211.9 67.6;" xml:space="preserve">
<style type="text/css">
	.st0{fill:#FFFFFF;}
</style>
<g>
	<path class="st0" d="M94,4.8c2.1,0,3.8,0.5,5,1.5s1.8,2.5,1.8,4.4c0,2-0.7,3.5-2.2,4.6v0.1c2.1,0.9,3.1,2.7,3.1,5.3
		c0,1.9-0.7,3.5-2.1,4.5s-3.2,1.6-5.5,1.6h-9.2c-0.5,0-0.8-0.1-1-0.3c-0.2-0.2-0.3-0.5-0.3-1V6.1c0-0.5,0.1-0.8,0.3-1
		c0.2-0.2,0.5-0.3,1-0.3C84.9,4.8,94,4.8,94,4.8z M94.6,11.5c0-1.2-0.6-1.7-1.9-1.7h-3v3.4h3C94,13.2,94.6,12.6,94.6,11.5z M95.3,20
		c0-1.2-0.7-1.8-2-1.8h-3.6v3.6h3.6C94.7,21.8,95.3,21.2,95.3,20z"/>
	<path class="st0" d="M103.7,13.4c1.1-2.1,3.4-3.2,6.9-3.2c2.6,0,4.5,0.6,5.6,1.8s1.7,2.8,1.7,4.9v7.6c0,0.6-0.1,1-0.2,1.2
		s-0.5,0.5-0.9,0.7c-1.4,0.6-3.4,0.9-6.1,0.9c-2.8,0-4.7-0.4-5.8-1.2c-1.1-0.8-1.6-2.1-1.6-3.9c0-2,0.6-3.3,1.7-4.1
		c1.1-0.7,3.1-1.1,5.8-1.1c0.2,0,0.4,0,0.8,0s0.5,0,0.6,0v-0.8c0-1.1-0.6-1.6-1.7-1.6c-0.8,0-1.5,0.4-2,1.1
		c-0.2,0.3-0.4,0.5-0.6,0.6s-0.6,0-1.1-0.2l-2.2-0.9c-0.4-0.2-0.7-0.4-0.8-0.7C103.4,14.2,103.5,13.9,103.7,13.4z M112,20.9
		c-0.3,0-0.8,0-1.6,0c-1.1,0-1.6,0.4-1.6,1.2c0,0.4,0.1,0.7,0.3,0.9c0.2,0.2,0.6,0.3,1.2,0.3c0.7,0,1.2,0,1.5-0.1
		c0.1,0,0.2-0.1,0.2-0.2V20.9z"/>
	<path class="st0" d="M140.8,10.7c0.4,0,0.7,0.1,0.9,0.3s0.3,0.5,0.3,0.9v13.8c0,0.4-0.1,0.7-0.3,0.9c-0.2,0.2-0.5,0.3-0.9,0.3
		h-19.5c-0.4,0-0.7-0.1-0.9-0.3s-0.3-0.5-0.3-0.9V11.9c0-0.4,0.1-0.7,0.3-0.9c0.2-0.2,0.5-0.3,0.9-0.3h3.4c0.5,0,0.8,0.1,0.9,0.3
		c0.2,0.2,0.2,0.5,0.2,0.9v9.9h2.3v-9.9c0-0.4,0.1-0.7,0.3-0.9s0.5-0.3,0.9-0.3h3.4c0.5,0,0.8,0.1,0.9,0.3c0.2,0.2,0.2,0.5,0.2,0.9
		v9.9h2.3v-9.9c0-0.4,0.1-0.7,0.3-0.9s0.5-0.3,0.9-0.3H140.8z"/>
	<path class="st0" d="M102,59.3c0.2,0.4,0.3,0.8,0.1,1.1c-0.1,0.3-0.4,0.4-0.9,0.4h-3.3c-0.8,0-1.5-0.1-1.8-0.2
		c-0.4-0.2-0.7-0.5-0.9-1.1L92.4,54c-0.3-0.6-0.5-1-0.8-1.2s-0.7-0.4-1.3-0.4h-0.6v7.1c0,0.5-0.1,0.8-0.3,1c-0.2,0.2-0.5,0.3-1,0.3
		h-3.5c-0.5,0-0.8-0.1-1-0.3s-0.3-0.5-0.3-1V40.1c0-0.5,0.1-0.8,0.3-1c0.2-0.2,0.5-0.3,1-0.3h3.5c0.5,0,0.8,0.1,1,0.3s0.3,0.5,0.3,1
		V47h0.4h0.2l4.5-7c0.3-0.5,0.6-0.8,0.9-0.9c0.3-0.1,0.8-0.2,1.6-0.2h3.6c0.5,0,0.8,0.1,0.9,0.4c0.1,0.2,0.1,0.6-0.2,1l-5.6,9
		c0.7,0.5,1.4,1.3,1.9,2.4L102,59.3z"/>
	<path class="st0" d="M102.5,51c0-2.1,0.7-3.8,2-5s3.2-1.8,5.7-1.8s4.4,0.6,5.7,1.8c1.3,1.2,2,2.9,2,5v3.5c0,2.1-0.7,3.8-2,5
		s-3.2,1.8-5.7,1.8s-4.4-0.6-5.7-1.8c-1.3-1.2-2-2.9-2-5V51z M112.1,50.9c0-1.1-0.7-1.7-2-1.7s-1.9,0.6-1.9,1.7v3.8
		c0,1.1,0.6,1.6,1.9,1.6s2-0.5,2-1.6V50.9z"/>
	<path class="st0" d="M136.7,44.7c0.5,0,0.9,0.1,1,0.3c0.2,0.2,0.3,0.5,0.3,1v13.7c0,0.5-0.1,0.8-0.3,0.9c-0.2,0.2-0.5,0.2-0.9,0.2
		H134c-0.5,0-0.8-0.1-1-0.3s-0.3-0.5-0.3-0.9v-2.4c0-1.5-0.1-3.4,0.5-5.6h0.2c-0.4,1.3-0.8,2.3-1.2,3l-1.2,2.3
		c-0.2,0.4-0.4,0.6-0.6,0.7c-0.2,0.1-0.5,0.2-0.9,0.2h-1.4c-0.4,0-0.7-0.1-0.9-0.2s-0.4-0.4-0.6-0.7l-1.2-2.2
		c-0.4-0.6-0.7-1.7-1.1-3h0.2c0.6,2.5,0.5,4.4,0.5,5.7v2.4c0,0.4-0.1,0.7-0.3,0.9c-0.2,0.2-0.5,0.3-0.9,0.3h-2.7
		c-0.5,0-0.8-0.1-1-0.2c-0.2-0.2-0.2-0.5-0.2-0.9V46c0-0.5,0.1-0.8,0.3-1c0.2-0.2,0.5-0.3,1.1-0.3h2.7c0.5,0,0.8,0.1,1.1,0.2
		c0.2,0.1,0.4,0.4,0.7,0.8l3.3,6.2l3.3-6.1c0.2-0.4,0.4-0.6,0.6-0.8c0.2-0.1,0.6-0.2,1-0.2h2.7L136.7,44.7L136.7,44.7z"/>
	<path class="st0" d="M153.9,44.3c0.2,0,0.4,0,0.8,0c4.9,0,7.3,2.5,7.3,7.4V54c0,4.9-2.4,7.4-7.3,7.4c-0.4,0-0.6,0-0.8,0v5.2
		c0,0.4-0.1,0.7-0.3,0.9c-0.2,0.2-0.5,0.3-0.9,0.3h-3.4c-0.5,0-0.8-0.1-0.9-0.3c-0.2-0.2-0.3-0.5-0.3-0.9v-5.2c-0.2,0-0.4,0-0.8,0
		c-4.9,0-7.3-2.5-7.3-7.4v-2.3c0-4.9,2.4-7.4,7.3-7.4c0.4,0,0.6,0,0.8,0v-5.2c0-0.5,0.1-0.8,0.3-0.9c0.2-0.2,0.5-0.3,0.9-0.3h3.4
		c0.5,0,0.8,0.1,0.9,0.3c0.2,0.2,0.3,0.5,0.3,0.9V44.3z M145.9,54.2c0,1.4,0.6,2.1,1.8,2.1c0.1,0,0.2,0,0.4,0s0.3,0,0.3,0v-7
		c-0.1,0-0.4,0-0.7,0c-1.2,0-1.8,0.7-1.8,2V54.2z M156.3,51.3c0-1.4-0.6-2-1.8-2c-0.3,0-0.5,0-0.7,0v7c0.1,0,0.2,0,0.3,0
		c0.2,0,0.3,0,0.4,0c1.2,0,1.8-0.7,1.8-2.1V51.3z"/>
	<path class="st0" d="M163.7,51c0-2.1,0.7-3.8,2-5s3.2-1.8,5.7-1.8s4.4,0.6,5.7,1.8s2,2.9,2,5v3.5c0,2.1-0.7,3.8-2,5
		s-3.2,1.8-5.7,1.8s-4.4-0.6-5.7-1.8s-2-2.9-2-5V51z M173.4,50.9c0-1.1-0.7-1.7-2-1.7s-1.9,0.6-1.9,1.7v3.8c0,1.1,0.6,1.6,1.9,1.6
		c1.3,0,2-0.5,2-1.6V50.9z"/>
	<path class="st0" d="M182.5,45.3c1.8-0.7,3.9-1.1,6.5-1.1c2.4,0,4.2,0.6,5.3,1.7c1.2,1.2,1.8,2.8,1.8,5v3.3c0,2.3-0.6,4-1.8,5.2
		s-3,1.8-5.4,1.8c-0.3,0-0.9-0.1-1.9-0.2v5.3c0,0.5-0.1,0.8-0.3,0.9c-0.2,0.2-0.5,0.2-0.9,0.2h-3.4c-0.5,0-0.8-0.1-0.9-0.2
		c-0.2-0.2-0.3-0.5-0.3-0.9V47.1c0-0.5,0.1-0.9,0.2-1.1C181.6,45.7,182,45.5,182.5,45.3z M190.3,50.8c0-1-0.6-1.5-1.8-1.5
		c-0.6,0-1.1,0.1-1.4,0.2c-0.1,0-0.1,0.1-0.1,0.2v6.5c0.5,0.1,0.9,0.2,1.4,0.2c1.3,0,1.9-0.6,1.9-1.7L190.3,50.8L190.3,50.8z"/>
	<path class="st0" d="M210.7,44.7c0.5,0,0.8,0.1,0.9,0.3s0.2,0.5,0.2,0.9v2.7c0,0.5-0.1,0.8-0.2,0.9c-0.2,0.2-0.5,0.3-0.9,0.3h-3.3
		v9.9c0,0.4-0.1,0.7-0.2,0.9c-0.2,0.2-0.5,0.3-0.9,0.3h-3.4c-0.5,0-0.8-0.1-0.9-0.3c-0.2-0.2-0.2-0.5-0.2-0.9v-9.9h-3.3
		c-0.5,0-0.8-0.1-0.9-0.3c-0.2-0.2-0.2-0.5-0.2-0.9v-2.7c0-0.4,0.1-0.7,0.2-0.9c0.2-0.2,0.5-0.3,0.9-0.3H210.7z"/>
</g>
<g>
	<g>
		<g>
			<g>
				<path class="st0" d="M71.3,51.4c0,0.2,0,0.5,0,0.7c0,0.4-0.1,0.8-0.2,1.2c0,0.1,0,0.1-0.1,0.2c0,0.1,0,0.1,0,0.2
					c-1.6,5.2-8.3,9.5-10.9,10.9c-0.6,0.3-1.3,0.3-1.9,0c-0.9-0.5-2.4-1.4-4-2.6c-1.7-1.3-3.5-2.8-4.9-4.6c-0.9-1.1-1.6-2.4-2-3.7
					c0-0.1,0-0.1-0.1-0.2c0-0.1,0-0.2-0.1-0.2c-0.1-0.3-0.2-0.7-0.2-1s-0.1-0.6-0.1-0.8c0-4,3.2-7.2,7.2-7.2c0.9,0,1.7,0.2,2.5,0.5
					c0.7,0.3,1.4,0.7,2,1.1c0.3,0.2,0.7,0.2,1,0c0.6-0.4,1.2-0.8,1.9-1.1c0.8-0.3,1.7-0.5,2.6-0.5C68.1,44.2,71.3,47.4,71.3,51.4z"
					/>
			</g>
			<path class="st0" d="M69.8,31.4l-29-29.3c-2.7-2.7-7-2.8-9.9-0.5c-0.2,0.2-0.4,0.3-0.6,0.5L1.1,31.4c-1.4,1.4-1.4,3.8,0,5.2
				c0.2,0.2,0.4,0.3,0.6,0.5c0.6,0.4,1.3,0.6,2,0.6s1.1-0.2,1.8-0.6C5.7,37,5.9,36.8,6,36.7l1.4-1.3c0.2-0.2,0.6,0,0.6,0.3v15.5
				c0,7.4,7.2,13.6,15,13.6h26l0,0c1.5,0,2.1-1.8,1-2.8c-0.9-0.8-1.8-1.6-2.5-2.5c-0.7-0.8-1.7-1.2-2.7-1.2H23
				c-3.7,0-8.6-3.8-8.6-7.2V28.9c0-0.1,0-0.2,0.1-0.2l20.6-21c0.1-0.1,0.4-0.1,0.5,0l20.2,21.6c0.1,0.1,0.1,0.2,0.1,0.2v10.9
				c0,0.9,0.5,1.6,1.2,2.1l0.1,0.1c1.1,0.6,2.5,0.6,3.6,0l0,0c0.8-0.4,1.3-1.2,1.3-2.1v-4.9c0-0.3,0.4-0.5,0.6-0.3l1.5,1.3
				c0.7,0.7,1.8,1.1,2.8,1.1s2-0.4,2.7-1.1C71.2,35.2,71.3,32.8,69.8,31.4z"/>
			<g>
				<g transform="translate(0.000000,511.000000) scale(0.100000,-0.100000)">
					<path class="st0" d="M330.9,4893c-2.8-0.9-5.8-3.6-7.2-6.4c-1.2-2.4-1.3-3.8-1.3-12.8c0-10.1,0-10.3,1.9-14.3
						c5-10.6,6.8-19,6.8-32.8c0-10.2,0.5-13,2.7-14.8c0.7-0.6,3.6-0.9,9.6-1c13.3-0.3,23.2-3.3,34-10.6c12.3-8.3,22-21.8,25.9-36.3
						c1.5-5.7,2.5-14.5,2.1-19.4c-0.3-4.4-0.3-4.5,1.6-6.4c3.3-3.2,5.7-3.8,14.3-3.8c11.9,0,20.8-2.1,31.4-7.5
						c4.5-2.3,4.9-2.4,13.4-2.8c9.7-0.4,12.8,0.1,16.2,2.7c3.9,3,4.4,4.8,4.6,19c0.2,14.6-0.2,16.2-5,19.6l-2.7,1.9l-11.1,0.3
						l-11.2,0.3l-1.5,6.2c-2.5,11.2-7.5,23.8-13.4,33.4l-2.8,4.6l8,7.9c7.1,7.1,8,8.2,8.6,10.9c1.5,6.1,0.2,8.5-9.8,18.7
						c-9.9,10.2-12.5,11.5-18.9,9.6c-1.9-0.6-4.4-2.5-10-8.1c-4.1-4-7.7-7.4-8-7.4s-2.2,1.1-4.4,2.4c-9.6,6.2-22.2,11.5-33.8,14.6
						l-5.3,1.4l0.3,9.7c0.3,11-0.3,13.9-3.3,17.3c-3.3,3.8-4.9,4.1-18.1,4.3C338,4893.5,331.9,4893.2,330.9,4893z"/>
					<path class="st0" d="M257.4,4880.1c-2.7-1-3.8-1.9-4.6-3.8c-1.9-3.8-1-5.2,9.1-15.5c10.3-10.5,11.7-12.7,11.7-18.7
						c0-5.6-1.6-8.3-8.8-15.7c-7.5-7.7-10.7-9.6-16.3-9.6c-5.9,0.1-8.3,1.5-17.7,10.9c-5.1,5.1-9.1,8.5-10.1,8.7
						c-2.7,0.7-5.6-0.4-7.1-2.8c-1.4-2-1.5-2.7-1.2-7.6c0.9-13.8,6.4-25.6,16.4-34.9c10.1-9.4,19.2-12.8,36.3-13.7
						c18-0.9,13.5,2.5,59.7-44c21.3-21.3,39.6-40.3,40.9-42.2c3.9-5.9,4.7-9.6,4.6-21c-0.2-17.9,3.6-28.7,13.9-39.5
						c10.3-10.9,21.9-15.9,36.8-16c7.5-0.1,7.5-0.1,9.4,1.7c2.2,2.1,2.8,4.4,1.9,7c-0.3,1-4.7,5.9-9.6,10.9c-6,6.1-9.3,10-10.2,11.9
						c-1.8,4-1.7,9.4,0.2,13.4s13.2,15.4,17.1,17.1c3.4,1.5,9.6,1.7,12.8,0.3c1.3-0.6,5.9-4.5,10.7-9.3c4.6-4.6,9-8.7,9.8-9.1
						c3-1.5,6.9-0.1,8.6,3.2c0.8,1.6,0.9,3.1,0.7,7.2c-1.4,18.9-11.8,34.6-28.7,43.2c-6.8,3.5-11.8,4.5-23.8,5
						c-12.5,0.6-15.4,1.4-21.5,5.9c-2,1.5-20.6,20-41.5,41.1c-36.2,36.7-37.9,38.6-39.8,42.8c-2.5,5.6-3.2,10.3-2.8,18.6
						c0.9,17.4-5.2,31.7-18.2,42.9c-4.4,3.8-12.7,8.2-18.8,10C272.6,4879.9,259.4,4880.9,257.4,4880.1z"/>
					<path class="st0" d="M206.5,4770.4c-3.1-0.9-6-3.3-7.4-6.2c-1.2-2.2-1.3-3.8-1.5-15.5l-0.1-13.1l1.9-2.7c1-1.5,3.1-3.3,4.6-4.1
						c2.6-1.3,3.5-1.5,13.2-1.5h10.4l0.7-3.6c2.4-12.4,8.5-27.7,15.1-38.6l1.5-2.5l-7.6-7.8c-6.7-6.8-7.7-8.2-8.4-10.9
						c-1.5-6.2,0.2-9.2,10.9-19.8c6.2-6.2,8.5-8,10.4-8.6c6.2-1.7,8.5-0.6,17.4,8.2l7.5,7.4l4.3-2.9c9.2-6.2,23.9-12.6,34.6-15.1
						l4.8-1.1v-10.3c0-11.7,0.6-13.9,4.5-17.4c2.9-2.6,4.5-2.8,18.3-2.9l11.5-0.1l3.1,1.9c5,3.1,5.6,5,5.7,17.4
						c0.2,10.3,0.2,10.7-1.3,13.4c-2.3,4.2-5.2,13-6.2,18.8c-0.6,3.3-1,8.7-1,15.1c0,10.2-0.5,13-2.7,14.8c-0.7,0.6-3.6,0.9-9.6,1
						c-6.7,0.1-9.8,0.5-14.5,1.7c-22.7,6-40.2,23.9-46,47c-0.8,3.5-1.3,7.6-1.5,13.6c-0.2,8-0.3,8.7-1.6,10.3c-3,3.2-4.5,3.6-15.7,4
						c-12.6,0.6-18.9,2.1-28.5,6.8l-6.2,3.1l-9.3,0.3C212.1,4770.9,207.9,4770.8,206.5,4770.4z"/>
				</g>
			</g>
		</g>
	</g>
</g>
</svg>
